<?xml version="1.0" encoding="utf-8"?>
<!-- Generator: Adobe Illustrator 23.0.1, SVG Export Plug-In . SVG Version: 6.00 Build 0)  -->
<svg version="1.1" id="Layer_1" xmlns="http://www.w3.org/2000/svg" xmlns:xlink="http://www.w3.org/1999/xlink" x="0px" y="0px"
	 viewBox="0 0 181.4 192.8" style="enable-background:new 0 0 181.4 192.8;" xml:space="preserve">
<style type="text/css">
	.st0{fill:#FFFFFF;}
	.st1{fill:#E5E5E5;}
	.st2{fill:none;stroke:#609AD3;stroke-miterlimit:10;}
	.st3{fill:url(#SVGID_1_);}
	.st4{fill:url(#SVGID_2_);}
	.st5{fill:#541932;}
</style>
<g>
	<rect x="2.5" y="2.5" class="st0" width="176.4" height="187.8"/>
	<path class="st1" d="M176.4,5v182.8H5V5H176.4 M181.4,0H0v192.8h181.4V0L181.4,0z"/>
</g>
<path class="st2" d="M123.3,42.5"/>
<linearGradient id="SVGID_1_" gradientUnits="userSpaceOnUse" x1="9.7467" y1="144.69" x2="171.6706" y2="144.69">
	<stop  offset="0" style="stop-color:#B37A5A"/>
	<stop  offset="0.4828" style="stop-color:#CBA959"/>
	<stop  offset="1" style="stop-color:#8B5F3D"/>
</linearGradient>
<path class="st3" d="M90.7,143.2c32.4,0,61.5,2.8,81,7.2c-17.4-4.9-47.9-11.8-81-11.4c-36.2,0.4-63.2,6.2-81,11.4
	C29.2,146,58.3,143.2,90.7,143.2z"/>
<g>
	<g>
		<linearGradient id="SVGID_2_" gradientUnits="userSpaceOnUse" x1="90.031" y1="16.535" x2="90.6421" y2="134.6695">
			<stop  offset="0" style="stop-color:#B37A5A"/>
			<stop  offset="0.3019" style="stop-color:#CBA959"/>
			<stop  offset="0.4506" style="stop-color:#C09C54"/>
			<stop  offset="0.7297" style="stop-color:#A67D48"/>
			<stop  offset="1" style="stop-color:#8B5F3D"/>
		</linearGradient>
		<path class="st4" d="M111.1,62.2c-0.8-1.7-1.7-3.2-2.6-4.8V29.2h0v-4.9l-4,1.8c-2.2,1-4.5,2.3-6.9,3.9v-9.2L92,13.8v20.5
			c-0.5,0.4-1,0.8-1.5,1.2c-0.5-0.4-1-0.8-1.4-1.2V13.7l-5.7,7.1v9.3c-2.4-1.6-4.8-2.9-7-3.9l-4-1.8v33.1c-0.9,1.6-1.8,3.2-2.6,4.8
			c-9.4,19.3-10.3,44.1-10,57.2l0.1,2.7h9.7v-5.6h-4.2c-0.1-11.6,0.9-30.1,7-46.1v62.9h0h5.6h0.1V58.8c1.6-2.8,3.4-5.3,5.3-7.7v82.2
			h5.7V44.5c0.5-0.5,1-1,1.4-1.5c0.5,0.5,1,1,1.5,1.5v88.8h5.7V51.2c1.8,2.4,3.6,4.9,5.2,7.7v74.5h0.1h5.6h0V70.5
			c6.1,15.9,7.1,34.4,7,46l-4.3,0.2v5.6l9.7-0.2l0.1-2.7C121.4,106.4,120.6,81.6,111.1,62.2z M78.2,48.7V33.4c1.7,1,3.4,2.2,5.3,3.6
			v5.4C81.6,44.3,79.9,46.4,78.2,48.7z M102.9,48.7c-1.7-2.3-3.4-4.4-5.2-6.3v-5.5c1.8-1.4,3.6-2.6,5.2-3.6V48.7z"/>
	</g>
</g>
<g>
	<g>
		<path class="st5" d="M67.6,152.9L67.4,165l7.4,0.1l0,2.3l-10.1-0.2l0.3-14.4L67.6,152.9z"/>
		<path class="st5" d="M85.8,152.8l4.1,10.6c0.8-1.7,1.5-3.5,2.3-5.2c0.8-1.8,1.6-3.5,2.3-5.2l2.9,0.1l-0.3,14.4l-2.6,0l0.2-8.7
			c-0.6,1.5-1.2,2.9-1.9,4.4c-0.6,1.5-1.2,2.9-1.8,4.3l-2.2,0l-3.5-8.9l-0.2,8.8l-2.7,0l0.3-14.4L85.8,152.8z"/>
		<path class="st5" d="M105.7,152.8l6.1,0.1c0.8,0,1.5,0.2,2.1,0.4s1.1,0.6,1.6,1c0.4,0.4,0.7,0.9,0.9,1.4c0.2,0.5,0.3,1,0.3,1.5
			c0,0.6-0.1,1.1-0.4,1.6c-0.2,0.5-0.6,1-1,1.4c-0.4,0.4-1,0.7-1.6,0.9c-0.6,0.2-1.3,0.3-2.1,0.3l-3.5-0.1l-0.1,5.8l-2.7,0
			L105.7,152.8z M108.2,159.3l3.5,0.1c0.3,0,0.6,0,0.9-0.2c0.3-0.1,0.5-0.2,0.8-0.4c0.2-0.2,0.4-0.4,0.5-0.7
			c0.1-0.3,0.2-0.5,0.2-0.8c0-0.6-0.2-1.1-0.6-1.5c-0.4-0.4-1-0.6-1.7-0.6l-3.5-0.1L108.2,159.3z"/>
	</g>
</g>
<g>
	<g>
		<path d="M125,156.1c-1.9,0-3.5-1.6-3.5-3.5c0-1.9,1.6-3.5,3.5-3.5c1.9,0,3.5,1.6,3.5,3.5C128.5,154.5,126.9,156.1,125,156.1z
			 M125,149.6c-1.6,0-3,1.3-3,3c0,1.6,1.3,3,3,3c1.6,0,3-1.3,3-3C127.9,150.9,126.6,149.6,125,149.6z"/>
	</g>
	<g>
		<path d="M123.5,154.5v-3.9h1.7c0.3,0,0.6,0,0.8,0.1c0.2,0.1,0.3,0.2,0.4,0.4s0.2,0.4,0.2,0.6c0,0.3-0.1,0.5-0.3,0.7
			c-0.2,0.2-0.4,0.3-0.8,0.4c0.1,0.1,0.2,0.1,0.3,0.2c0.1,0.2,0.3,0.3,0.4,0.5l0.6,1.1h-0.6l-0.5-0.8c-0.1-0.2-0.3-0.4-0.4-0.5
			c-0.1-0.1-0.2-0.2-0.3-0.3c-0.1,0-0.2-0.1-0.2-0.1c-0.1,0-0.2,0-0.3,0H124v1.7H123.5z M124,152.4h1.1c0.2,0,0.4,0,0.6-0.1
			c0.1,0,0.2-0.1,0.3-0.2c0.1-0.1,0.1-0.2,0.1-0.3c0-0.2-0.1-0.3-0.2-0.5c-0.1-0.1-0.3-0.2-0.6-0.2H124V152.4z"/>
	</g>
</g>
<g>
	<g>
		<path class="st5" d="M26.9,173.2l-0.1,5l2.8,0l0,0.5l-3.4-0.1l0.1-5.5L26.9,173.2z"/>
		<path class="st5" d="M35.6,173.2l1.9,5.5l-0.6,0l-0.6-1.8l-2.4,0l-0.7,1.7l-0.6,0l2.2-5.5L35.6,173.2z M35.2,173.7l-1.1,2.7l2.1,0
			L35.2,173.7z"/>
		<path class="st5" d="M41.9,173.2l2.8,4.8l0.1-4.8l0.6,0l-0.1,5.5l-0.8,0l-2.8-4.8l-0.1,4.8l-0.6,0l0.1-5.5L41.9,173.2z"/>
		<path class="st5" d="M49.1,173.2l2.1,0c0.2,0,0.5,0,0.7,0.1s0.4,0.2,0.6,0.3c0.2,0.1,0.3,0.3,0.5,0.4c0.1,0.2,0.3,0.4,0.3,0.6
			c0.1,0.2,0.2,0.4,0.2,0.7s0.1,0.5,0.1,0.7c0,0.4-0.1,0.8-0.2,1.1s-0.3,0.6-0.5,0.9c-0.2,0.2-0.5,0.4-0.8,0.6
			c-0.3,0.1-0.6,0.2-1,0.2l-2.1,0L49.1,173.2z M49.6,178.1l1.2,0c0.3,0,0.6,0,0.8-0.1s0.5-0.2,0.7-0.4c0.2-0.2,0.3-0.4,0.4-0.7
			c0.1-0.3,0.2-0.6,0.2-0.9c0-0.4,0-0.7-0.1-1c-0.1-0.3-0.2-0.5-0.4-0.7s-0.4-0.3-0.6-0.4c-0.2-0.1-0.5-0.1-0.8-0.1l-1.2,0
			L49.6,178.1z"/>
		<path class="st5" d="M58.4,176.1l0,0.6l-1.8,0l0-0.6L58.4,176.1z"/>
		<path class="st5" d="M62.4,173.2l-0.1,5.5l-0.6,0l0.1-5.5L62.4,173.2z"/>
		<path class="st5" d="M67,173.2l2.8,4.8l0.1-4.8l0.6,0l-0.1,5.5l-0.8,0l-2.8-4.8l-0.1,4.8l-0.6,0l0.1-5.5L67,173.2z"/>
		<path class="st5" d="M78.1,173.2l0,0.5l-1.9,0l-0.1,5l-0.6,0l0.1-5l-1.9,0l0-0.5L78.1,173.2z"/>
		<path class="st5" d="M85.2,173.2l0,0.5l-3.1-0.1l0,1.9l3,0.1l0,0.5l-3-0.1l0,2l3.3,0.1l0,0.5l-3.9-0.1l0.1-5.5L85.2,173.2z"/>
		<path class="st5" d="M92.9,174.8c0,0.1,0,0.3-0.1,0.4s-0.1,0.3-0.2,0.4c-0.1,0.1-0.2,0.2-0.3,0.3c-0.1,0.1-0.2,0.2-0.3,0.2
			c0.1,0,0.3,0.1,0.4,0.2c0.1,0.1,0.2,0.2,0.2,0.3c0,0.1,0.1,0.2,0.1,0.3c0,0.1,0,0.2,0,0.4l0,0.8c0,0.1,0,0.2,0,0.3
			c0,0.1,0.1,0.2,0.1,0.3l-0.6,0c0,0,0-0.1-0.1-0.1c0-0.1,0-0.1,0-0.2c0-0.1,0-0.1,0-0.2c0-0.1,0-0.1,0-0.1l0-0.9c0-0.1,0-0.2,0-0.3
			s-0.1-0.2-0.2-0.3c-0.1-0.1-0.2-0.2-0.3-0.2c-0.1-0.1-0.3-0.1-0.5-0.1l-1.7,0l0,2.4l-0.6,0l0.1-5.5l2.3,0c0.3,0,0.5,0.1,0.7,0.2
			s0.4,0.2,0.5,0.4c0.1,0.2,0.2,0.3,0.3,0.5C92.8,174.4,92.9,174.6,92.9,174.8z M89.4,175.8l1.7,0c0.1,0,0.3,0,0.4-0.1
			s0.2-0.1,0.4-0.2c0.1-0.1,0.2-0.2,0.2-0.3s0.1-0.3,0.1-0.4c0-0.1,0-0.3-0.1-0.4c-0.1-0.1-0.1-0.2-0.2-0.3
			c-0.1-0.1-0.2-0.2-0.3-0.2s-0.3-0.1-0.4-0.1l-1.7,0L89.4,175.8z"/>
		<path class="st5" d="M97.2,173.2l-0.1,5.5l-0.6,0l0.1-5.5L97.2,173.2z"/>
		<path class="st5" d="M105.7,176c0,0.4-0.1,0.8-0.2,1.2c-0.1,0.4-0.3,0.7-0.5,0.9c-0.2,0.3-0.5,0.4-0.8,0.6
			c-0.3,0.1-0.7,0.2-1.1,0.2c-0.4,0-0.8-0.1-1.1-0.2c-0.3-0.1-0.6-0.4-0.8-0.6s-0.4-0.6-0.5-0.9c-0.1-0.4-0.2-0.7-0.1-1.2
			c0-0.4,0.1-0.8,0.2-1.2c0.1-0.4,0.3-0.7,0.5-0.9s0.5-0.4,0.8-0.6c0.3-0.1,0.7-0.2,1.1-0.2s0.8,0.1,1.1,0.2
			c0.3,0.1,0.6,0.4,0.8,0.6c0.2,0.3,0.4,0.6,0.5,0.9C105.7,175.2,105.7,175.6,105.7,176z M105.1,176c0-0.4,0-0.7-0.1-1
			c-0.1-0.3-0.2-0.5-0.4-0.8c-0.2-0.2-0.4-0.4-0.6-0.5c-0.2-0.1-0.5-0.2-0.7-0.2c-0.3,0-0.5,0-0.8,0.1c-0.2,0.1-0.4,0.3-0.6,0.5
			c-0.2,0.2-0.3,0.4-0.4,0.7c-0.1,0.3-0.2,0.6-0.2,1c0,0.4,0,0.7,0.1,1s0.2,0.5,0.4,0.8s0.4,0.4,0.6,0.5c0.2,0.1,0.5,0.2,0.8,0.2
			c0.3,0,0.5,0,0.8-0.1s0.4-0.3,0.6-0.5c0.2-0.2,0.3-0.4,0.4-0.7C105.1,176.7,105.1,176.3,105.1,176z"/>
		<path class="st5" d="M113.2,174.8c0,0.1,0,0.3-0.1,0.4s-0.1,0.3-0.2,0.4c-0.1,0.1-0.2,0.2-0.3,0.3c-0.1,0.1-0.2,0.2-0.3,0.2
			c0.1,0,0.3,0.1,0.4,0.2c0.1,0.1,0.2,0.2,0.2,0.3c0,0.1,0.1,0.2,0.1,0.3c0,0.1,0,0.2,0,0.4l0,0.8c0,0.1,0,0.2,0,0.3
			c0,0.1,0.1,0.2,0.1,0.3l-0.6,0c0,0,0-0.1-0.1-0.1c0-0.1,0-0.1,0-0.2c0-0.1,0-0.1,0-0.2c0-0.1,0-0.1,0-0.1l0-0.9c0-0.1,0-0.2,0-0.3
			s-0.1-0.2-0.2-0.3c-0.1-0.1-0.2-0.2-0.3-0.2c-0.1-0.1-0.3-0.1-0.5-0.1l-1.7,0l0,2.4l-0.6,0l0.1-5.5l2.3,0c0.3,0,0.5,0.1,0.7,0.2
			s0.4,0.2,0.5,0.4c0.1,0.2,0.2,0.3,0.3,0.5C113.1,174.4,113.2,174.6,113.2,174.8z M109.7,175.8l1.7,0c0.1,0,0.3,0,0.4-0.1
			s0.2-0.1,0.4-0.2c0.1-0.1,0.2-0.2,0.2-0.3s0.1-0.3,0.1-0.4c0-0.1,0-0.3-0.1-0.4c-0.1-0.1-0.1-0.2-0.2-0.3
			c-0.1-0.1-0.2-0.2-0.3-0.2s-0.3-0.1-0.4-0.1l-1.7,0L109.7,175.8z"/>
		<path class="st5" d="M118.3,176.1l0,0.6l-1.8,0l0-0.6L118.3,176.1z"/>
		<path class="st5" d="M121.6,173.2l2.1,0c0.2,0,0.5,0,0.7,0.1s0.4,0.2,0.6,0.3c0.2,0.1,0.3,0.3,0.5,0.4c0.1,0.2,0.3,0.4,0.3,0.6
			c0.1,0.2,0.2,0.4,0.2,0.7s0.1,0.5,0.1,0.7c0,0.4-0.1,0.8-0.2,1.1s-0.3,0.6-0.5,0.9c-0.2,0.2-0.5,0.4-0.8,0.6
			c-0.3,0.1-0.6,0.2-1,0.2l-2.1,0L121.6,173.2z M122.1,178.1l1.2,0c0.3,0,0.6,0,0.8-0.1s0.5-0.2,0.7-0.4c0.2-0.2,0.3-0.4,0.4-0.7
			c0.1-0.3,0.2-0.6,0.2-0.9c0-0.4,0-0.7-0.1-1c-0.1-0.3-0.2-0.5-0.4-0.7s-0.4-0.3-0.6-0.4c-0.2-0.1-0.5-0.1-0.8-0.1l-1.2,0
			L122.1,178.1z"/>
		<path class="st5" d="M133.3,173.2l0,0.5l-3.1-0.1l0,1.9l3,0.1l0,0.5l-3-0.1l0,2l3.3,0.1l0,0.5l-3.9-0.1l0.1-5.5L133.3,173.2z"/>
		<path class="st5" d="M137.1,176.9c0,0.2,0.1,0.4,0.1,0.5c0.1,0.2,0.2,0.3,0.3,0.4c0.1,0.1,0.3,0.2,0.5,0.3
			c0.2,0.1,0.4,0.1,0.6,0.1c0.2,0,0.4,0,0.5-0.1c0.2,0,0.3-0.1,0.5-0.2s0.2-0.2,0.3-0.3c0.1-0.1,0.1-0.3,0.1-0.5
			c0-0.2,0-0.3-0.1-0.4c-0.1-0.1-0.2-0.2-0.3-0.3s-0.3-0.2-0.5-0.2s-0.4-0.1-0.5-0.2c-0.1,0-0.3-0.1-0.5-0.1
			c-0.2-0.1-0.3-0.1-0.4-0.2c-0.1-0.1-0.3-0.1-0.4-0.2c-0.1-0.1-0.2-0.2-0.3-0.3c-0.1-0.1-0.2-0.2-0.2-0.4c0-0.1-0.1-0.3-0.1-0.5
			c0-0.2,0.1-0.4,0.1-0.6c0.1-0.2,0.2-0.3,0.4-0.4s0.4-0.2,0.6-0.3s0.5-0.1,0.8-0.1c0.2,0,0.5,0,0.6,0.1c0.2,0.1,0.3,0.1,0.5,0.2
			c0.1,0.1,0.3,0.2,0.3,0.3c0.1,0.1,0.2,0.2,0.2,0.3s0.1,0.2,0.1,0.4s0,0.3,0,0.4l-0.6,0c0-0.2-0.1-0.3-0.1-0.5
			c-0.1-0.1-0.2-0.3-0.3-0.4c-0.1-0.1-0.2-0.2-0.4-0.2s-0.3-0.1-0.5-0.1c-0.2,0-0.3,0-0.5,0c-0.2,0-0.3,0.1-0.4,0.1
			c-0.1,0.1-0.2,0.2-0.3,0.3c-0.1,0.1-0.1,0.2-0.1,0.4c0,0.2,0,0.3,0.1,0.4s0.2,0.2,0.3,0.3c0.1,0.1,0.3,0.2,0.5,0.2
			c0.2,0.1,0.4,0.1,0.5,0.2c0.1,0,0.3,0.1,0.5,0.1c0.2,0.1,0.3,0.1,0.4,0.2c0.1,0.1,0.3,0.1,0.4,0.2c0.1,0.1,0.2,0.2,0.3,0.3
			c0.1,0.1,0.2,0.2,0.2,0.4c0,0.1,0.1,0.3,0.1,0.5c0,0.3-0.1,0.5-0.2,0.7c-0.1,0.2-0.2,0.4-0.4,0.5c-0.2,0.1-0.4,0.2-0.6,0.3
			c-0.2,0.1-0.5,0.1-0.8,0.1c-0.3,0-0.5-0.1-0.8-0.1c-0.2-0.1-0.5-0.2-0.7-0.4c-0.2-0.2-0.3-0.4-0.5-0.6c-0.1-0.2-0.2-0.5-0.2-0.8
			L137.1,176.9z"/>
		<path class="st5" d="M144.8,173.2l-0.1,5.5l-0.6,0l0.1-5.5L144.8,173.2z"/>
		<path class="st5" d="M148.8,175.9c0,0.4,0,0.7,0.1,1c0.1,0.3,0.2,0.5,0.4,0.8c0.2,0.2,0.4,0.4,0.6,0.5c0.2,0.1,0.5,0.2,0.7,0.2
			c0.2,0,0.3,0,0.5-0.1c0.2,0,0.3-0.1,0.4-0.2c0.1-0.1,0.3-0.2,0.4-0.3s0.2-0.3,0.3-0.4c0.1-0.1,0.2-0.3,0.2-0.5
			c0.1-0.2,0.1-0.3,0.1-0.5l-1.7,0l0-0.5l2.3,0l0,2.9l-0.4,0l-0.2-1c-0.1,0.1-0.2,0.3-0.4,0.4c-0.1,0.1-0.3,0.2-0.5,0.3
			c-0.2,0.1-0.3,0.2-0.5,0.2s-0.4,0.1-0.5,0.1c-0.4,0-0.7-0.1-1.1-0.2c-0.3-0.2-0.6-0.4-0.8-0.6c-0.2-0.3-0.4-0.6-0.5-0.9
			c-0.1-0.4-0.2-0.7-0.2-1.1c0-0.2,0-0.5,0.1-0.7s0.1-0.5,0.2-0.7s0.2-0.4,0.4-0.6c0.1-0.2,0.3-0.3,0.5-0.5c0.2-0.1,0.4-0.2,0.6-0.3
			s0.5-0.1,0.7-0.1c0.3,0,0.6,0.1,0.9,0.1c0.3,0.1,0.5,0.2,0.7,0.4c0.2,0.2,0.4,0.3,0.5,0.6c0.1,0.2,0.2,0.4,0.3,0.7l-0.6,0
			c-0.1-0.4-0.4-0.7-0.6-0.9c-0.3-0.2-0.6-0.3-1.1-0.3c-0.3,0-0.5,0.1-0.8,0.2s-0.4,0.3-0.6,0.5c-0.2,0.2-0.3,0.5-0.4,0.7
			S148.8,175.6,148.8,175.9z"/>
		<path class="st5" d="M157.7,173.2l2.8,4.8l0.1-4.8l0.6,0l-0.1,5.5l-0.8,0l-2.8-4.8l-0.1,4.8l-0.6,0l0.1-5.5L157.7,173.2z"/>
	</g>
</g>
</svg>
